:SAMPLES-PER-SECOND 30
:FULLY-SPECIFIED
:DEGREES
228
root  -34.7341 33.8465 -31.7392 163.389 78.3118 153.955
RightUpLeg  -6.65026 -13.2929 -7.67324
RightLeg  36.481 -2.98927 -1.94253
RightFoot  -4.17259 -0.00323156 0.486928
RightToes  -51.9552 -0.320315 -0.37224
Spine  -1.24304 2.63166 -2.90215
Spine1  -2.64337 5.34394 -5.08306
HEad  -66.7554 -26.8665 4.22229
LeftShoulder1  -1.94126e-019 -3.10601e-018 -2.51263e-017
LeftArm  -26.743 22.6999 -74.5438
LeftForeArm  39.7807 -5.52686 -0.950591
LeftHand  -0.469029 0.249598 10.6451
RightShoulder  -4.96962e-017 0 -2.36833e-017
RightArm  -22.5088 -23.4128 81.9896
RightForeArm  50.7962 36.4897 5.31456
RightHand  -0.399344 0.329283 -8.17735
LeftUpLeg  -26.9259 -8.26444 -4.70678
LeftLeg  24.6574 13.0364 4.93898
LeftFoot  5.50637 -0.0668008 1.55059
LeftToes  -15.1424 1.46665e-006 1.03344e-007
229
root  -33.8945 34.0133 -32.0414 158.523 80.5823 149.263
RightUpLeg  -10.9519 -14.3648 -8.27935
RightLeg  44.9919 -2.90568 -2.58483
RightFoot  3.08308 0.0135718 0.0309579
RightToes  -55.2643 -0.350402 -0.384186
Spine  -1.31387 2.56472 -2.98984
Spine1  -2.77672 5.28707 -5.26
HEad  -66.4925 -25.0111 3.79016
LeftShoulder1  -1.94126e-019 -3.10601e-018 -2.51263e-017
LeftArm  -29.853 25.8136 -74.0955
LeftForeArm  35.192 -4.98492 -0.863338
LeftHand  -0.358975 2.04873 12.3182
RightShoulder  -4.96962e-017 0 -2.36833e-017
RightArm  -25.052 -24.7841 81.066
RightForeArm  47.7708 34.9675 5.09148
RightHand  -0.342925 -0.979481 -8.96617
LeftUpLeg  -24.4006 -4.88164 -5.27338
LeftLeg  23.248 12.2744 4.31774
LeftFoot  3.88783 -0.0318818 1.10088
LeftToes  -13.8009 1.46665e-006 1.03344e-007
230
root  -33.1327 34.1514 -32.2503 154.77 82.2906 145.814
RightUpLeg  -14.9955 -15.9185 -8.14622
RightLeg  52.4124 -3.51764 -4.05432
RightFoot  6.21166 0.0461607 -0.296919
RightToes  -37.734 -0.20064 -0.301967
Spine  -1.24526 2.09696 -2.94698
Spine1  -2.61024 4.47438 -5.19183
HEad  -67.1989 -22.4624 3.83287
LeftShoulder1  -1.94126e-019 -3.10601e-018 -2.51263e-017
LeftArm  -30.665 29.3994 -74.107
LeftForeArm  30.1465 -5.98348 -1.04365
LeftHand  -0.334047 2.23435 12.0973
RightShoulder  -4.96962e-017 0 -2.36833e-017
RightArm  -25.8501 -24.4966 79.4295
RightForeArm  47.4559 31.9265 4.38971
RightHand  -0.312283 -1.08061 -8.33516
LeftUpLeg  -22.1955 -4.40549 -5.05382
LeftLeg  22.3509 13.4546 4.49195
LeftFoot  2.90132 -0.019571 0.954454
LeftToes  -13.53 1.46665e-006 1.03344e-007
231
root  -32.4185 34.276 -32.3581 154.223 83.5396 145.517
RightUpLeg  -18.3271 -17.6062 -7.20416
RightLeg  56.8886 -4.94077 -6.63974
RightFoot  5.87884 0.0648779 -0.529589
RightToes  -29.3249 -0.1393 -0.247246
Spine  -1.06966 1.54783 -2.86258
Spine1  -2.22901 3.4406 -5.04825
HEad  -68.5669 -20.4827 4.33899
LeftShoulder1  -1.94126e-019 -3.10601e-018 -2.51263e-017
LeftArm  -29.8141 31.5976 -74.1715
LeftForeArm  29.0628 -6.50202 -1.13452
LeftHand  -0.365952 1.47502 10.7713
RightShoulder  -4.96962e-017 0 -2.36833e-017
RightArm  -26.5404 -23.5838 77.7679
RightForeArm  48.9009 27.8793 3.43376
RightHand  -0.304052 -1.0943 -8.13625
LeftUpLeg  -20.1629 -5.31683 -4.43107
LeftLeg  21.4542 15.4583 4.88012
LeftFoot  2.15235 -0.0129094 0.848792
LeftToes  -13.2961 1.46665e-006 1.03344e-007
232
root  -31.6693 34.4187 -32.3503 157.107 84.9513 148.579
RightUpLeg  -21.0853 -18.6809 -5.4179
RightLeg  58.4681 -5.69998 -8.08673
RightFoot  4.84228 0.0629136 -0.510575
RightToes  -28.7738 -0.135569 -0.243354
Spine  -0.873895 1.27606 -2.70524
Spine1  -1.81115 2.90629 -4.75266
HEad  -69.5912 -19.6838 4.91071
LeftShoulder1  -1.94126e-019 -3.10601e-018 -2.51263e-017
LeftArm  -26.1716 32.2905 -74.0487
LeftForeArm  31.083 -6.5508 -1.1421
LeftHand  -0.372781 0.655352 9.14759
RightShoulder  -4.96962e-017 0 -2.36833e-017
RightArm  -28.3818 -23.1287 76.3552
RightForeArm  50.8649 23.4092 2.43936
RightHand  -0.333243 -1.13757 -9.01648
LeftUpLeg  -18.0138 -4.99201 -3.47388
LeftLeg  20.1217 16.3905 4.75693
LeftFoot  1.39545 -0.00588031 0.644444
LeftToes  -12.5282 1.46665e-006 1.03344e-007
233
root  -30.9881 34.5384 -32.3282 162.043 86.3601 153.34
RightUpLeg  -23.9291 -19.256 -3.43038
RightLeg  57.723 -5.46385 -7.55112
RightFoot  5.02422 0.0611083 -0.516158
RightToes  -28.9568 -0.138125 -0.246005
Spine  -0.814559 1.16054 -2.57611
Spine1  -1.67238 2.63084 -4.49277
HEad  -69.5676 -19.6228 5.22258
LeftShoulder1  -1.94126e-019 -3.10601e-018 -2.51263e-017
LeftArm  -21.9944 32.0453 -73.7996
LeftForeArm  34.9181 -6.54774 -1.13843
LeftHand  -0.393414 -0.172811 8.28963
RightShoulder  -4.96962e-017 0 -2.36833e-017
RightArm  -31.436 -23.374 75.2875
RightForeArm  51.6057 19.6576 1.75923
RightHand  -0.303781 -1.87333 -9.83289
LeftUpLeg  -16.4676 -3.65904 -2.57048
LeftLeg  18.9816 16.3803 4.40891
LeftFoot  0.769954 -0.00187303 0.44037
LeftToes  -12.4184 1.46665e-006 1.03344e-007
234
root  -30.3965 34.6186 -32.3047 169.033 87.652 160.16
RightUpLeg  -26.4823 -19.5617 -1.56506
RightLeg  54.764 -4.74807 -5.91573
RightFoot  5.47676 0.0553205 -0.465506
RightToes  -29.7536 -0.142228 -0.25025
Spine  -0.750539 1.06534 -2.48607
Spine1  -1.53389 2.36534 -4.29691
HEad  -68.9809 -19.6725 5.316
LeftShoulder1  -1.94126e-019 -3.10601e-018 -2.51263e-017
LeftArm  -19.0315 31.2858 -73.4601
LeftForeArm  37.5075 -6.99839 -1.21577
LeftHand  -0.40669 -0.834685 7.71092
RightShoulder  -4.96962e-017 0 -2.36833e-017
RightArm  -34.4565 -23.8229 74.3247
RightForeArm  51.7441 16.3084 1.51717
RightHand  -0.254945 -2.61449 -10.2947
LeftUpLeg  -15.2918 -1.89322 -1.84007
LeftLeg  18.2766 15.8363 4.06185
LeftFoot  0.112854 -6.25976e-005 0.225443
LeftToes  -12.2704 1.46665e-006 1.03344e-007
235
root  -29.8479 34.6456 -32.2414 -170.125 88.6791 -179.005
RightUpLeg  -28.29 -19.6042 0.253376
RightLeg  49.834 -4.02041 -4.22081
RightFoot  5.95682 0.0499147 -0.399383
RightToes  -30.111 -0.144686 -0.252737
Spine  -0.584326 0.947803 -2.33245
Spine1  -1.19884 2.04101 -3.98775
HEad  -68.6429 -19.5373 5.29937
LeftShoulder1  -1.94126e-019 -3.10601e-018 -2.51263e-017
LeftArm  -17.2398 30.0776 -73.1243
LeftForeArm  37.4823 -7.90257 -1.37629
LeftHand  -0.40815 -0.914683 7.64667
RightShoulder  -4.96962e-017 0 -2.36833e-017
RightArm  -36.4409 -24.2343 73.432
RightForeArm  51.8833 13.5796 1.3677
RightHand  -0.248558 -2.59094 -9.94097
LeftUpLeg  -14.4215 -0.338443 -1.03742
LeftLeg  18.4258 15.3186 3.97451
LeftFoot  -0.854882 -0.00173442 -0.070962
LeftToes  -11.8052 1.46665e-006 1.03344e-007
236
root  -29.2752 34.6205 -32.1525 -136.899 89.3828 -146.012
RightUpLeg  -29.438 -19.4396 1.50965
RightLeg  42.9022 -3.52862 -2.90474
RightFoot  6.00689 0.0458711 -0.318775
RightToes  -31.41 -0.15375 -0.261645
Spine  -0.481258 0.858219 -2.30011
Spine1  -0.987743 1.76137 -3.90426
HEad  -68.7919 -19.3829 5.10557
LeftShoulder1  -1.94126e-019 -3.10601e-018 -2.51263e-017
LeftArm  -16.916 28.3543 -72.6759
LeftForeArm  36.4767 -8.69999 -1.51892
LeftHand  -0.414001 -0.800347 7.88828
RightShoulder  -4.96962e-017 0 -2.36833e-017
RightArm  -37.5062 -25.1474 72.9272
RightForeArm  53.025 12.7597 1.4411
RightHand  -0.257192 -2.24219 -9.20104
LeftUpLeg  -13.7608 0.53977 -0.637173
LeftLeg  18.6777 15.3046 4.04174
LeftFoot  -1.79869 -0.00812438 -0.356001
LeftToes  -11.6999 1.46665e-006 1.03344e-007
237
root  -28.6731 34.5689 -32.0752 -98.9622 89.7253 -108.519
RightUpLeg  -29.8474 -19.7509 2.34937
RightLeg  33.7423 -2.65832 -1.55158
RightFoot  6.3347 0.0423413 -0.215737
RightToes  -31.8516 -0.156877 -0.264626
Spine  -0.491329 0.663565 -2.31316
Spine1  -0.994173 1.28054 -3.90029
HEad  -68.8527 -19.0676 4.40064
LeftShoulder1  -1.94126e-019 -3.10601e-018 -2.51263e-017
LeftArm  -17.4827 26.4265 -72.3038
LeftForeArm  35.3505 -9.51437 -1.66692
LeftHand  -0.373662 0.14965 8.32986
RightShoulder  -4.96962e-017 0 -2.36833e-017
RightArm  -38.0013 -26.0562 72.6463
RightForeArm  55.2029 12.0031 1.49169
RightHand  -0.255888 -2.25815 -9.19703
LeftUpLeg  -13.2387 0.645953 -0.621368
LeftLeg  18.9118 15.6226 4.1907
LeftFoot  -2.80325 -0.0203648 -0.670742
LeftToes  -10.9251 1.46665e-006 1.03344e-007
